<?xml version="1.0" encoding="UTF-8"?><svg id="a" xmlns="http://www.w3.org/2000/svg" viewBox="0 0 512 512"><rect width="512" height="512" rx="123.89" ry="123.89" style="fill:#0d0d0d;"/><g id="b"><g id="c"><g id="d"><path id="e" d="M340.05,331.39c0,8.08-6.86,14.65-15.32,14.65h-137.47c-8.46,0-15.32-6.58-15.32-14.65v-150.78c0-8.08,6.86-14.65,15.32-14.65h60.89v58.62c0,16.18,13.71,29.31,30.63,29.31h61.27s0,77.5,0,77.5ZM366.2,220.27l-82.93-79.34c-2.88-2.75-6.78-4.28-10.83-4.28h-100.49c-16.92,0-30.63,13.13-30.63,29.31v180.08c0,16.18,13.71,29.31,30.63,29.31h168.11c16.92,0,30.63-13.13,30.63-29.31v-115.4c0-3.87-1.61-7.59-4.49-10.37h0Z" style="fill:#c5dce7; fill-rule:evenodd;"/></g></g></g></svg>